<svg width="1000" height="700" xmlns="http://www.w3.org/2000/svg">
  <!-- Background -->
  <rect width="1000" height="700" fill="white"/>
  
  <!-- Title -->
  <text x="500" y="35" font-size="28" font-weight="bold" text-anchor="middle" fill="black">
    Backtest Results Comparison
  </text>
  <text x="500" y="60" font-size="14" text-anchor="middle" fill="gray">
    Baseline vs ML-Optimized (Corrected Position Sizing)
  </text>
  
  <!-- Left Box: Baseline -->
  <rect x="30" y="90" width="450" height="550" stroke="steelblue" stroke-width="3" fill="white"/>
  <text x="255" y="125" font-size="18" font-weight="bold" text-anchor="middle" fill="steelblue">
    BASELINE (EMA 12/26)
  </text>
  <text x="50" y="160" font-size="13" fill="black">SL: 2.0% | TP: 5.0%</text>
  
  <line x1="50" y1="170" x2="430" y2="170" stroke="lightgray" stroke-width="1"/>
  
  <text x="50" y="200" font-size="12" fill="black">Total Trades: 1,557</text>
  <text x="50" y="225" font-size="12" fill="black">Total P&L: $38,176</text>
  <text x="50" y="250" font-size="12" fill="black">Win Rate: 33.0%</text>
  <text x="50" y="275" font-size="12" fill="black">Winning Trades: 514</text>
  <text x="50" y="300" font-size="12" fill="black">Losing Trades: 1,043</text>
  
  <line x1="50" y1="310" x2="430" y2="310" stroke="lightgray" stroke-width="1"/>
  
  <text x="50" y="340" font-size="12" fill="black">Avg Win: $128.82</text>
  <text x="50" y="365" font-size="12" fill="black">Avg Loss: -$163.10</text>
  
  <line x1="50" y1="375" x2="430" y2="375" stroke="lightgray" stroke-width="1"/>
  
  <text x="50" y="405" font-size="12" fill="black">Max Win: $500.00</text>
  <text x="50" y="430" font-size="12" fill="black">Max Loss: -$200.00</text>
  <text x="50" y="455" font-size="12" fill="black">Avg Trade: $24.52</text>
  
  <!-- Right Box: ML-Optimized -->
  <rect x="520" y="90" width="450" height="550" stroke="darkgreen" stroke-width="3" fill="white"/>
  <text x="745" y="125" font-size="18" font-weight="bold" text-anchor="middle" fill="darkgreen">
    ML-OPTIMIZED (EMA 8/20)
  </text>
  <text x="540" y="160" font-size="13" fill="black">SL: 0.5% | TP: 3.52%</text>
  
  <line x1="540" y1="170" x2="920" y2="170" stroke="lightgray" stroke-width="1"/>
  
  <text x="540" y="200" font-size="12" fill="black">Total Trades: 2,171</text>
  <text x="540" y="225" font-size="12" fill="black">Total P&L: $275,147</text>
  <text x="540" y="250" font-size="12" fill="black">Win Rate: 26.4%</text>
  <text x="540" y="275" font-size="12" fill="black">Winning Trades: 574</text>
  <text x="540" y="300" font-size="12" fill="black">Losing Trades: 1,597</text>
  
  <line x1="540" y1="310" x2="920" y2="310" stroke="lightgray" stroke-width="1"/>
  
  <text x="540" y="340" font-size="12" fill="black">Avg Win: $496.40</text>
  <text x="540" y="365" font-size="12" fill="black">Avg Loss: -$127.09</text>
  
  <line x1="540" y1="375" x2="920" y2="375" stroke="lightgray" stroke-width="1"/>
  
  <text x="540" y="405" font-size="12" fill="black">Max Win: $1,408.00</text>
  <text x="540" y="430" font-size="12" fill="black">Max Loss: -$200.00</text>
  <text x="540" y="455" font-size="12" fill="black">Avg Trade: $126.74</text>
  
  <!-- Bottom: Key Findings -->
  <rect x="30" y="670" width="940" height="20" stroke="none" fill="lightgreen"/>
  <text x="500" y="682" font-size="12" font-weight="bold" text-anchor="middle" fill="darkgreen">
    KEY FINDING: ML-Optimized is +621% more profitable ($236,971 additional profit)
  </text>
  
  <!-- Legend/Notes -->
  <text x="50" y="680" font-size="11" fill="gray">
    Corrected Position Sizing: Fixed 2% risk per trade | 10-Year Backtest on Hourly Gold Data
  </text>
</svg>
